<svg width="61" height="61" viewBox="0 0 61 61" fill="none" xmlns="http://www.w3.org/2000/svg">
<g id="crown 1" clip-path="url(#clip0_1_6)">
<path id="Vector" d="M57.8416 22.585C57.8509 22.7507 57.8387 22.9192 57.7971 23.0867L54.0831 37.9426C53.8958 38.691 53.2251 39.2172 52.4539 39.2213L30.1702 39.3338C30.1672 39.3338 30.1645 39.3338 30.1616 39.3338H7.87761C7.10241 39.3338 6.42692 38.8058 6.23964 38.0535L2.52568 23.1414C2.48291 22.9694 2.47053 22.7961 2.48134 22.6262C1.0446 22.1735 -0.000488281 20.8291 -0.000488281 19.2447C-0.000488281 17.2898 1.58976 15.6995 3.54466 15.6995C5.49955 15.6995 7.0898 17.2898 7.0898 19.2447C7.0898 20.3456 6.58538 21.3306 5.79554 21.9813L10.4454 26.6663C11.6206 27.8505 13.2514 28.5294 14.9197 28.5294C16.8924 28.5294 18.7732 27.5925 19.9577 26.023L27.5994 15.8976C26.9575 15.2561 26.56 14.3697 26.56 13.3924C26.56 11.4375 28.1502 9.84723 30.1051 9.84723C32.06 9.84723 33.6503 11.4375 33.6503 13.3924C33.6503 14.3404 33.2739 15.201 32.6655 15.8377C32.6675 15.8404 32.67 15.8427 32.672 15.8456L40.2584 25.9989C41.4424 27.5835 43.33 28.5296 45.3083 28.5296C46.9919 28.5296 48.5752 27.8739 49.7657 26.6832L54.4448 22.004C53.6383 21.3535 53.1204 20.3591 53.1204 19.2447C53.1204 17.2898 54.7107 15.6995 56.6656 15.6995C58.6205 15.6995 60.2107 17.2898 60.2107 19.2447C60.2107 20.7868 59.2192 22.0983 57.8416 22.585ZM53.7207 44.6234C53.7207 43.6911 52.9649 42.9352 52.0326 42.9352H8.36538C7.43306 42.9352 6.67721 43.6911 6.67721 44.6234V48.675C6.67721 49.6073 7.43306 50.3632 8.36538 50.3632H52.0326C52.9649 50.3632 53.7207 49.6073 53.7207 48.675V44.6234Z" fill="#FF5CA1"/>
</g>
<defs>
<clipPath id="clip0_1_6">
<rect width="60.2112" height="60.2112" fill="white"/>
</clipPath>
</defs>
</svg>
