<svg width="661" height="623" viewBox="0 0 661 623" fill="none" xmlns="http://www.w3.org/2000/svg">
<path d="M659.535 217.906C651.164 141.957 585.076 86.8688 512.036 94.97C511.023 95.1051 510.011 95.3076 508.998 95.4426C489.287 34.8858 431.165 -5.75547 367.71 1.26561C333.147 5.11371 303.31 22.4639 282.248 47.6453C256.191 27.6622 223.248 17.2656 188.686 21.1137C115.578 29.1474 63.1261 97.2654 71.5642 173.215C71.8342 175.712 72.3743 178.075 72.7118 180.506C24.7156 205.687 -5.52677 259.763 0.953731 318.767C6.15163 365.552 33.1537 404.303 70.2141 425.366C68.3915 437.518 67.9189 450.007 69.3365 462.834C77.7072 538.783 143.795 593.872 216.835 585.771C238.032 583.408 257.474 575.914 274.215 564.707C301.622 603.728 347.593 627.019 396.872 621.619C448.513 615.948 489.692 580.235 506.568 532.978C511.293 532.978 516.086 532.775 520.947 532.235C593.987 524.134 646.439 455.948 638.068 379.999C636.043 361.839 630.71 344.894 622.744 329.704C649.612 301.214 664.26 260.843 659.535 217.906Z" fill="#FD56A6"/>
<path d="M465.46 290.818C473.02 359.206 423.741 420.775 355.359 428.336C286.976 435.897 225.411 386.615 217.85 318.227C210.29 249.839 259.636 188.269 328.019 180.708C396.334 173.147 457.899 222.429 465.46 290.818Z" fill="#FFC3E3"/>
<path d="M320.26 245.856C320.936 252.134 313.375 258.143 303.317 259.223C293.258 260.37 284.55 256.117 283.875 249.839C283.2 243.56 290.761 237.552 300.819 236.404C310.81 235.392 319.585 239.577 320.26 245.856Z" fill="#FD56A6"/>
<path d="M376.896 237.282C377.571 243.561 370.01 249.569 359.952 250.649C349.893 251.797 341.185 247.544 340.51 241.265C339.835 234.987 347.396 228.978 357.454 227.831C367.512 226.818 376.22 231.004 376.896 237.282Z" fill="#FD56A6"/>
<path d="M412.806 270.226C413.481 276.505 405.921 282.513 395.862 283.593C385.804 284.741 377.096 280.488 376.421 274.21C375.746 267.931 383.306 261.923 393.365 260.842C403.423 259.762 412.131 263.948 412.806 270.226Z" fill="#FD56A6"/>
<path d="M300.344 284.944C301.02 291.223 293.459 297.231 283.401 298.311C273.342 299.459 264.634 295.206 263.959 288.928C263.284 282.649 270.845 276.641 280.903 275.56C290.961 274.48 299.669 278.666 300.344 284.944Z" fill="#FD56A6"/>
<path d="M421.179 314.244C421.854 320.522 414.293 326.531 404.235 327.678C394.177 328.758 385.468 324.573 384.793 318.294C384.118 312.016 391.679 306.007 401.737 304.927C411.728 303.78 420.436 307.965 421.179 314.244Z" fill="#FD56A6"/>
<path d="M305.004 327.071C305.679 333.349 298.119 339.358 288.061 340.438C278.002 341.518 269.294 337.332 268.619 331.054C267.944 324.775 275.505 318.767 285.563 317.687C295.621 316.607 304.329 320.792 305.004 327.071Z" fill="#FD56A6"/>
<path d="M342.197 357.586C342.872 363.864 335.311 369.872 325.253 370.953C315.195 372.1 306.487 367.847 305.744 361.569C305.069 355.29 312.63 349.282 322.688 348.134C332.746 347.054 341.522 351.24 342.197 357.586Z" fill="#FD56A6"/>
<path d="M394.178 351.78C394.853 358.058 387.292 364.067 377.234 365.214C367.176 366.294 358.468 362.109 357.793 355.83C357.117 349.552 364.678 343.543 374.736 342.463C384.795 341.316 393.503 345.501 394.178 351.78Z" fill="#FD56A6"/>
<path d="M357.32 300.067C357.995 306.345 350.434 312.353 340.376 313.501C330.318 314.581 321.609 310.396 320.934 304.117C320.259 297.839 327.82 291.83 337.878 290.683C347.936 289.602 356.645 293.788 357.32 300.067Z" fill="#FD56A6"/>
<path d="M327.9 129.402L316.896 130.613L324.628 200.939L335.633 199.729L327.9 129.402Z" fill="#FFC3E3"/>
<path d="M338.007 128.252C338.952 136.894 332.742 144.725 324.101 145.67C315.46 146.615 307.697 140.404 306.752 131.695C305.807 123.054 312.018 115.29 320.658 114.345C329.299 113.4 337.062 119.611 338.007 128.252Z" fill="#FFC3E3"/>
<path d="M358.091 402.971L347.087 404.186L354.855 474.513L365.859 473.297L358.091 402.971Z" fill="#FFC3E3"/>
<path d="M344.691 475.594C343.746 466.952 349.957 459.189 358.598 458.176C367.238 457.231 375.001 463.442 375.946 472.083C376.891 480.725 370.681 488.488 362.04 489.501C353.467 490.446 345.637 484.235 344.691 475.594Z" fill="#FFC3E3"/>
<path d="M512.679 277.443L442.365 285.233L443.584 296.237L513.898 288.447L512.679 277.443Z" fill="#FFC3E3"/>
<path d="M515.003 298.581C506.362 299.526 498.599 293.315 497.654 284.674C496.709 276.033 502.919 268.269 511.56 267.256C520.201 266.311 527.964 272.522 528.909 281.163C529.854 289.872 523.643 297.636 515.003 298.581Z" fill="#FFC3E3"/>
<path d="M239.146 307.616L168.833 315.413L170.053 326.417L240.366 318.62L239.146 307.616Z" fill="#FFC3E3"/>
<path d="M167.759 305.265C176.4 304.32 184.163 310.531 185.108 319.172C186.053 327.813 179.843 335.577 171.202 336.59C162.561 337.535 154.731 331.324 153.786 322.682C152.841 313.974 159.051 306.21 167.759 305.265Z" fill="#FFC3E3"/>
<path d="M445.197 163.49L400.953 218.697L409.592 225.621L453.836 170.414L445.197 163.49Z" fill="#FFC3E3"/>
<path d="M461.81 176.793C456.342 183.611 446.487 184.691 439.669 179.223C432.851 173.822 431.771 163.898 437.238 157.08C442.706 150.261 452.63 149.181 459.38 154.649C466.131 160.05 467.211 169.974 461.81 176.793Z" fill="#FFC3E3"/>
<path d="M273.155 378.197L228.925 433.419L237.566 440.341L281.796 385.119L273.155 378.197Z" fill="#FFC3E3"/>
<path d="M220.952 427.054C226.353 420.235 236.276 419.155 243.094 424.623C249.912 430.092 250.992 439.948 245.524 446.767C240.056 453.585 230.133 454.665 223.383 449.197C216.565 443.796 215.484 433.872 220.952 427.054Z" fill="#FFC3E3"/>
<path d="M424.562 361.545L417.642 370.186L472.859 414.413L479.779 405.771L424.562 361.545Z" fill="#FFC3E3"/>
<path d="M466.538 422.328C459.72 416.927 458.64 407.003 464.107 400.184C469.575 393.366 479.431 392.286 486.249 397.754C493.067 403.222 494.147 413.146 488.679 419.897C483.211 426.716 473.288 427.796 466.538 422.328Z" fill="#FFC3E3"/>
<path d="M209.821 189.441L202.895 198.078L258.083 242.34L265.009 233.703L209.821 189.441Z" fill="#FFC3E3"/>
<path d="M216.229 181.518C223.047 186.919 224.127 196.843 218.659 203.662C213.191 210.48 203.335 211.561 196.517 206.092C189.699 200.691 188.619 190.767 194.087 183.949C199.487 177.13 209.411 176.05 216.229 181.518Z" fill="#FFC3E3"/>
<path d="M266.453 130.714L256.227 134.956L283.33 200.308L293.556 196.067L266.453 130.714Z" fill="#FFC3E3"/>
<path d="M275.837 126.834C279.145 134.868 275.365 144.117 267.332 147.425C259.299 150.733 250.05 146.952 246.743 138.919C243.435 130.885 247.215 121.704 255.248 118.328C263.281 114.952 272.53 118.801 275.837 126.834Z" fill="#FFC3E3"/>
<path d="M371.969 384.887L361.745 389.134L388.883 454.473L399.107 450.225L371.969 384.887Z" fill="#FFC3E3"/>
<path d="M379.456 458.378C376.081 450.344 379.929 441.163 387.962 437.787C395.995 434.479 405.243 438.26 408.551 446.294C411.859 454.328 408.078 463.576 400.045 466.885C392.012 470.193 382.764 466.412 379.456 458.378Z" fill="#FFC3E3"/>
<path d="M485.269 221.094L419.943 248.255L424.193 258.479L489.519 231.317L485.269 221.094Z" fill="#FFC3E3"/>
<path d="M493.409 240.793C485.375 244.101 476.127 240.32 472.819 232.287C469.444 224.253 473.292 215.004 481.325 211.696C489.358 208.388 498.606 212.168 501.914 220.202C505.289 228.236 501.442 237.417 493.409 240.793Z" fill="#FFC3E3"/>
<path d="M231.099 326.67L165.78 353.838L170.031 364.061L235.35 336.892L231.099 326.67Z" fill="#FFC3E3"/>
<path d="M161.891 344.422C169.924 341.114 179.104 344.895 182.48 352.928C185.855 360.962 182.007 370.211 173.974 373.519C165.941 376.895 156.693 373.047 153.385 365.013C150.077 356.979 153.857 347.73 161.891 344.422Z" fill="#FFC3E3"/>
<path d="M388.563 130.555L361.538 195.943L371.77 200.173L398.795 134.785L388.563 130.555Z" fill="#FFC3E3"/>
<path d="M408.21 138.716C404.902 146.749 395.654 150.597 387.621 147.289C379.588 143.981 375.74 134.732 379.048 126.699C382.356 118.665 391.604 114.817 399.637 118.125C407.738 121.5 411.585 130.682 408.21 138.716Z" fill="#FFC3E3"/>
<path d="M283.549 384.911L256.538 450.306L266.771 454.533L293.781 389.138L283.549 384.911Z" fill="#FFC3E3"/>
<path d="M247.076 446.429C250.384 438.395 259.632 434.547 267.665 437.855C275.698 441.163 279.546 450.412 276.238 458.446C272.93 466.48 263.682 470.328 255.649 467.02C247.548 463.712 243.768 454.463 247.076 446.429Z" fill="#FFC3E3"/>
<path d="M424.207 326.503L419.981 336.737L485.371 363.743L489.597 353.509L424.207 326.503Z" fill="#FFC3E3"/>
<path d="M481.521 373.18C473.487 369.872 469.64 360.623 472.947 352.589C476.255 344.556 485.503 340.708 493.536 344.016C501.57 347.324 505.417 356.572 502.11 364.606C498.734 372.707 489.554 376.488 481.521 373.18Z" fill="#FFC3E3"/>
<path d="M169.907 221.412L165.675 231.642L231.044 258.691L235.276 248.46L169.907 221.412Z" fill="#FFC3E3"/>
<path d="M173.83 211.965C181.863 215.273 185.711 224.521 182.403 232.555C179.096 240.589 169.847 244.437 161.814 241.129C153.781 237.821 149.933 228.572 153.241 220.538C156.549 212.505 165.73 208.657 173.83 211.965Z" fill="#FFC3E3"/>
<path d="M123.41 273.872C123.41 273.872 118.954 264.96 117.739 250.648C117.132 243.492 116.997 234.986 118.549 226.007C119.089 221.484 120.44 216.893 121.722 212.235C123.275 207.644 125.03 202.986 127.19 198.53C129.688 194.209 131.713 189.619 134.953 185.771C137.788 181.72 140.961 178.007 144.539 174.834C146.294 173.214 147.982 171.661 149.669 170.176C151.56 168.893 153.382 167.678 155.205 166.463C158.783 164.032 162.293 162.074 165.871 160.859C169.313 159.442 172.419 158.294 175.321 157.551C178.224 156.944 180.857 156.606 182.949 156.336C187.135 155.863 189.497 155.796 189.497 155.796C189.497 155.796 187.742 157.619 184.705 160.387C183.152 161.737 181.397 163.425 179.237 165.045C177.347 166.935 175.254 169.096 172.891 171.458C170.461 173.551 168.368 176.319 166.073 179.087C164.926 180.437 163.71 181.788 162.495 183.205C161.483 184.758 160.335 186.311 159.255 187.863C156.892 190.834 154.935 194.277 152.842 197.652C150.614 200.893 148.994 204.741 147.037 208.252C145.147 211.897 143.661 215.745 141.906 219.391C140.556 223.239 138.734 226.884 137.518 230.733C134.616 238.159 132.523 245.45 130.295 251.796C126.448 264.555 123.41 273.872 123.41 273.872Z" fill="#FFC3E3"/>
<path d="M143.188 413.551C143.188 413.551 133.67 410.648 122.396 401.669C116.793 397.214 110.515 391.475 105.115 384.117C102.212 380.606 99.8494 376.488 97.2842 372.37C94.9891 368.117 92.8289 363.593 91.0738 358.935C89.6562 354.142 87.766 349.484 87.226 344.555C86.2809 339.695 85.6733 334.902 85.8759 330.108C85.9434 327.745 85.9434 325.45 86.0109 323.155C86.4159 320.927 86.7534 318.699 87.1585 316.606C87.8335 312.353 88.8461 308.505 90.4662 305.062C91.8163 301.619 93.0989 298.513 94.584 295.948C96.1367 293.383 97.7568 291.29 98.9719 289.602C101.537 286.226 103.157 284.471 103.157 284.471C103.157 284.471 103.225 287.037 103.157 291.087C103.09 293.113 103.09 295.543 102.82 298.243C102.887 300.944 103.022 303.982 103.09 307.222C102.955 310.395 103.495 313.838 103.967 317.416C104.17 319.172 104.305 320.994 104.507 322.817C104.98 324.64 105.25 326.463 105.655 328.353C106.127 332.134 107.275 335.914 108.355 339.762C109.165 343.61 110.853 347.391 112.068 351.239C113.418 355.087 115.173 358.868 116.658 362.648C118.548 366.294 119.898 370.142 121.856 373.652C125.231 380.876 129.079 387.425 132.184 393.366C138.53 404.977 143.188 413.551 143.188 413.551Z" fill="#FFC3E3"/>
<path d="M248.836 507.729C248.836 507.729 240.398 512.994 226.222 515.56C219.134 516.842 210.696 517.72 201.583 516.977C197.06 516.91 192.334 515.897 187.609 515.087C182.884 513.939 178.091 512.657 173.433 510.902C168.91 508.809 164.117 507.188 160.067 504.353C155.747 501.855 151.764 499.087 148.321 495.847C146.566 494.294 144.878 492.741 143.191 491.188C141.773 489.433 140.355 487.678 139.005 486.058C136.305 482.75 134.01 479.442 132.457 475.999C130.77 472.691 129.284 469.72 128.272 466.885C127.394 464.049 126.854 461.484 126.382 459.391C125.504 455.273 125.302 452.91 125.302 452.91C125.302 452.91 127.259 454.53 130.297 457.298C131.782 458.716 133.605 460.336 135.427 462.294C137.52 463.982 139.883 465.94 142.38 468.032C144.743 470.26 147.646 472.083 150.616 474.108C152.034 475.121 153.519 476.201 155.004 477.281C156.692 478.159 158.312 479.104 159.932 480.049C163.105 482.142 166.682 483.762 170.26 485.518C173.703 487.475 177.686 488.691 181.331 490.311C185.111 491.864 189.094 493.011 192.942 494.429C196.925 495.442 200.705 496.927 204.62 497.737C212.316 499.965 219.741 501.315 226.289 503.003C239.318 505.568 248.836 507.729 248.836 507.729Z" fill="#FFC3E3"/>
<path d="M450.877 487.205C450.877 487.205 448.042 496.724 439.064 508.066C434.609 513.737 428.871 520.015 421.58 525.416C418.07 528.319 413.952 530.75 409.834 533.247C405.581 535.543 401.126 537.703 396.468 539.458C391.675 540.944 387.085 542.834 382.09 543.374C377.229 544.319 372.436 544.927 367.643 544.724C365.281 544.724 362.986 544.657 360.758 544.589C358.53 544.252 356.303 543.847 354.21 543.509C349.957 542.834 346.042 541.821 342.666 540.269C339.224 538.918 336.118 537.636 333.486 536.218C330.921 534.665 328.828 533.112 327.14 531.83C323.765 529.264 322.01 527.712 322.01 527.712C322.01 527.712 324.575 527.577 328.625 527.712C330.651 527.779 333.081 527.779 335.781 528.049C338.481 527.914 341.451 527.847 344.759 527.712C347.999 527.847 351.442 527.307 354.952 526.834C356.708 526.699 358.53 526.496 360.353 526.294C362.175 525.821 364.066 525.484 365.888 525.079C369.669 524.539 373.449 523.391 377.229 522.311C381.077 521.501 384.857 519.813 388.705 518.53C392.553 517.18 396.266 515.425 400.113 513.939C403.759 512.049 407.607 510.631 411.049 508.674C418.272 505.231 424.753 501.383 430.761 498.277C442.304 491.931 450.877 487.205 450.877 487.205Z" fill="#FFC3E3"/>
<path d="M568.808 379.796C568.808 379.796 568.673 389.72 563.07 403.02C560.303 409.636 556.522 417.264 550.919 424.488C548.354 428.269 544.979 431.644 541.739 435.222C538.228 438.598 534.516 441.838 530.533 444.809C526.348 447.509 522.365 450.547 517.774 452.505C513.387 454.733 508.864 456.623 504.206 457.771C501.911 458.378 499.683 458.986 497.523 459.526C495.228 459.796 493.067 459.998 490.907 460.269C486.654 460.741 482.604 460.876 478.891 460.269C475.179 459.931 471.871 459.526 468.968 458.851C466.065 458.041 463.635 457.096 461.677 456.353C457.695 454.868 455.602 453.788 455.602 453.788C455.602 453.788 458.032 452.977 461.948 451.965C463.905 451.492 466.268 450.817 468.901 450.344C471.466 449.534 474.368 448.589 477.474 447.577C480.579 446.834 483.752 445.349 487.059 443.999C488.68 443.323 490.367 442.716 492.122 442.041C493.742 441.096 495.43 440.285 497.118 439.408C500.628 437.923 503.936 435.762 507.311 433.669C510.821 431.847 513.994 429.146 517.369 426.986C520.745 424.623 523.85 421.923 527.09 419.492C530.06 416.724 533.368 414.294 536.203 411.458C542.211 406.193 547.477 400.724 552.337 396.134C561.788 386.615 568.808 379.796 568.808 379.796Z" fill="#FFC3E3"/>
<path d="M542.888 195.83C542.888 195.83 551.664 200.421 561.115 211.357C565.773 216.826 570.903 223.644 574.818 231.813C577.046 235.796 578.599 240.319 580.286 244.843C581.704 249.501 582.986 254.226 583.864 259.155C584.404 264.151 585.349 269.011 585.012 274.007C585.012 278.935 584.674 283.796 583.594 288.454C583.121 290.75 582.649 292.977 582.176 295.205C581.366 297.298 580.624 299.391 579.814 301.416C578.329 305.467 576.641 309.112 574.481 312.15C572.523 315.323 570.633 318.091 568.743 320.387C566.718 322.615 564.76 324.37 563.207 325.788C560.102 328.623 558.212 330.041 558.212 330.041C558.212 330.041 558.617 327.543 559.427 323.56C559.9 321.534 560.372 319.171 561.115 316.606C561.52 313.973 561.992 310.935 562.465 307.695C563.207 304.589 563.275 301.079 563.545 297.501C563.68 295.745 563.882 293.923 564.017 292.1C563.882 290.21 563.95 288.319 563.882 286.429C564.085 282.648 563.68 278.733 563.342 274.75C563.275 270.767 562.33 266.783 561.857 262.733C561.25 258.682 560.237 254.699 559.495 250.648C558.347 246.733 557.672 242.682 556.457 238.902C554.432 231.205 551.866 224.049 549.976 217.568C545.859 205.079 542.888 195.83 542.888 195.83Z" fill="#FFC3E3"/>
<path d="M388.098 102.801C388.098 102.801 397.144 98.6153 411.523 97.8052C418.678 97.4001 427.184 97.5351 436.094 99.3579C440.617 100.033 445.073 101.518 449.731 102.936C454.253 104.624 458.844 106.514 463.232 108.809C467.484 111.442 472.007 113.603 475.72 116.978C479.703 119.949 483.348 123.189 486.386 126.902C487.871 128.657 489.424 130.413 490.909 132.168C492.124 134.058 493.271 135.949 494.419 137.771C496.714 141.417 498.604 144.995 499.684 148.573C500.967 152.016 502.047 155.189 502.722 158.092C503.262 161.062 503.465 163.628 503.667 165.721C504.005 169.974 504.005 172.337 504.005 172.337C504.005 172.337 502.25 170.514 499.617 167.408C498.334 165.856 496.714 163.965 495.162 161.805C493.339 159.847 491.179 157.687 488.951 155.324C486.926 152.826 484.226 150.598 481.525 148.303C480.243 147.088 478.893 145.873 477.543 144.59C475.99 143.51 474.505 142.362 472.952 141.214C470.05 138.716 466.674 136.691 463.367 134.531C460.194 132.168 456.414 130.48 452.903 128.455C449.326 126.43 445.545 124.809 441.9 122.987C438.052 121.501 434.474 119.611 430.694 118.261C423.336 115.155 416.113 112.86 409.835 110.43C397.279 106.109 388.098 102.801 388.098 102.801Z" fill="#FFC3E3"/>
<path d="M228.513 128.522C228.513 128.522 232.294 119.341 242.352 109.012C247.347 103.881 253.693 98.2101 261.523 93.5519C265.304 90.9865 269.692 89.0962 274.012 86.9358C278.535 85.1131 283.193 83.4253 287.985 82.1426C292.913 81.1975 297.706 79.7797 302.702 79.7122C307.629 79.2397 312.49 79.1721 317.215 79.8472C319.578 80.1173 321.873 80.3873 324.101 80.6574C326.261 81.265 328.421 81.8726 330.514 82.4126C334.632 83.5603 338.412 84.9105 341.72 86.8008C345.027 88.4886 347.998 90.1088 350.428 91.7966C352.79 93.6194 354.748 95.3746 356.301 96.7924C359.406 99.6278 360.959 101.451 360.959 101.451C360.959 101.451 358.461 101.316 354.343 100.775C352.318 100.505 349.888 100.235 347.255 99.6953C344.555 99.4928 341.585 99.3578 338.277 99.0877C335.104 98.6151 331.594 98.8177 328.016 98.9527C326.261 98.9527 324.438 98.9527 322.616 98.9527C320.725 99.2227 318.835 99.3578 316.945 99.5603C313.165 99.6953 309.25 100.438 305.334 101.113C301.419 101.586 297.504 102.868 293.521 103.678C289.538 104.624 285.623 105.974 281.707 107.054C277.86 108.539 273.944 109.552 270.299 111.172C262.806 113.872 255.92 117.045 249.642 119.476C237.492 124.742 228.446 128.522 228.513 128.522Z" fill="#FFC3E3"/>
</svg>
