<svg width="998" height="998" viewBox="0 0 998 998" fill="none" xmlns="http://www.w3.org/2000/svg">
<g filter="url(#filter0_d_118_18)">
<path d="M769.776 891.313C870.46 846.097 915.441 727.737 870.365 626.95C858.693 600.733 841.802 578.599 821.874 560.456C827.283 558.651 832.787 557.416 838.196 555.041C938.88 509.825 983.861 391.465 938.785 290.679C893.615 189.797 775.375 144.771 674.69 189.987C669.376 192.457 664.821 195.782 659.697 198.537C659.507 171.654 654.193 144.296 642.426 118.174C597.255 17.3871 479.015 -27.6391 378.33 17.5771C281.062 61.1784 236.556 172.889 274.23 271.206C230.578 258.762 182.75 260.186 138.054 280.23C37.3695 325.541 -7.61113 443.901 37.5593 544.592C59.3854 593.323 98.3876 628.565 144.127 647.469C127.805 694.11 128.185 746.83 149.916 795.466C195.086 896.252 313.327 941.374 414.011 896.062C458.707 876.019 491.541 841.252 511.279 800.311C559.676 893.973 672.602 935.009 769.776 891.313Z" fill="#FD56A6"/>
<path d="M930.72 740.846C1001.61 656.208 990.694 530.059 906.142 459.005C884.221 440.482 859.358 427.943 833.546 420.343C837.627 416.259 842.087 412.839 845.883 408.374C916.77 323.737 905.762 197.587 821.305 126.533C736.752 55.4795 610.731 66.4986 539.749 151.136C535.953 155.696 533.391 160.636 530.069 165.385C518.207 141.257 501.506 118.934 479.585 100.506C395.032 29.4517 269.011 40.5658 198.029 125.109C129.514 206.802 138.054 326.681 214.825 398.875C170.129 406.76 127.711 428.893 96.2052 466.414C25.2231 551.052 36.3259 677.202 120.783 748.161C161.683 782.453 212.168 797.176 261.419 794.232C267.018 843.342 290.267 890.648 331.073 924.94C415.53 995.994 541.647 984.975 612.534 900.338C644.039 862.816 658.463 817.22 658.463 771.719C742.731 834.793 862.205 822.539 930.72 740.846Z" fill="white"/>
<path d="M565.464 429.936C565.464 429.936 609.401 253.916 626.672 272.44C643.848 290.963 603.707 384.245 603.707 384.245C603.707 384.245 690.252 311.386 704.771 337.984C719.29 364.582 565.464 429.936 565.464 429.936Z" fill="#FD56A6"/>
<path d="M575.523 535.852C575.523 535.852 752.599 497.001 743.679 520.654C734.759 544.402 633.505 549.816 633.505 549.816C633.505 549.816 737.131 594.937 719.765 619.825C702.399 644.618 575.523 535.852 575.523 535.852Z" fill="#FD56A6"/>
<path d="M502.266 591.042C502.266 591.042 572.394 758.323 547.436 753.858C522.668 749.394 498.944 650.602 498.944 650.602C498.944 650.602 473.322 760.793 445.708 748.254C418.188 735.62 502.266 591.042 502.266 591.042Z" fill="#FD56A6"/>
<path d="M462.597 440.955C462.597 440.955 470.093 259.711 448.362 272.63C426.536 285.549 438.683 386.335 438.683 386.335C438.683 386.335 376.336 292.008 354.89 313.381C333.538 334.754 462.597 440.955 462.597 440.955Z" fill="#FD56A6"/>
<path d="M421.034 522.744C421.034 522.744 244.338 482.657 253.068 506.405C261.798 530.153 362.957 536.327 362.957 536.327C362.957 536.327 259.046 580.689 276.223 605.766C293.304 630.654 421.034 522.744 421.034 522.744Z" fill="#FD56A6"/>
<path d="M597.16 472.493C597.16 472.493 733.43 352.898 737.036 377.881C740.642 402.959 654.572 456.724 654.572 456.724C654.572 456.724 767.118 446.18 763.987 476.388C760.76 506.5 597.16 472.493 597.16 472.493Z" fill="#FD56A6"/>
<path d="M417.047 462.234C417.047 462.234 236.081 472.493 248.607 450.55C261.228 428.607 362.103 439.246 362.103 439.246C362.103 439.246 266.922 378.261 287.989 356.413C309.056 334.66 417.047 462.234 417.047 462.234Z" fill="#FD56A6"/>
<path d="M519.343 414.739C519.343 414.739 459.274 243.563 483.947 249.548C508.43 255.532 526.176 355.464 526.176 355.464C526.176 355.464 558.345 246.983 585.106 261.232C611.867 275.385 519.343 414.739 519.343 414.739Z" fill="#FD56A6"/>
<path d="M456.713 584.585C456.713 584.585 402.623 757.755 386.49 738.282C370.358 718.808 415.908 627.996 415.908 627.996C415.908 627.996 325.283 695.725 312.282 668.273C299.376 640.82 456.713 584.585 456.713 584.585Z" fill="#FD56A6"/>
<path d="M562.335 583.35C562.335 583.35 727.264 658.583 705.912 672.167C684.561 685.846 600.293 629.421 600.293 629.421C600.293 629.421 656.187 727.737 627.339 737.141C598.68 746.641 562.335 583.35 562.335 583.35Z" fill="#FD56A6"/>
<path d="M355.653 426.043C332.403 453.781 336.009 495.197 363.719 518.47C370.931 524.55 378.997 528.729 387.538 531.199C386.209 532.529 384.786 533.669 383.552 535.189C360.208 562.926 363.814 604.248 391.523 627.616C419.233 650.889 460.513 647.279 483.762 619.542C484.996 618.117 485.945 616.407 486.989 614.887C490.974 622.866 496.383 630.086 503.595 636.165C531.4 659.438 572.585 655.829 595.929 628.091C618.324 601.303 615.573 561.976 590.425 538.323C605.039 535.759 618.894 528.444 629.332 516.19C652.582 488.453 648.976 447.036 621.171 423.763C607.791 412.459 591.184 407.71 575.052 408.66C573.249 392.511 565.562 377.027 552.182 365.723C524.472 342.45 483.098 346.06 459.848 373.797C449.6 386.051 444.855 401.06 444.76 415.974C417.335 395.171 378.048 399.255 355.653 426.043Z" fill="white"/>
<path d="M524.182 432.122C514.124 444.091 496.283 445.706 484.326 435.637C472.369 425.568 470.851 407.709 480.815 395.835C490.874 383.866 508.714 382.346 520.671 392.32C532.628 402.389 534.241 420.153 524.182 432.122Z" fill="#FFC3E3"/>
<path d="M438.875 488.357C428.911 500.326 411.07 501.941 399.113 491.872C387.061 481.803 385.638 463.944 395.602 451.975C405.661 440.006 423.501 438.486 435.458 448.461C447.415 458.53 448.934 476.388 438.875 488.357Z" fill="#FFC3E3"/>
<path d="M454.155 596.838C444.096 608.807 426.255 610.327 414.298 600.258C402.342 590.188 400.823 572.33 410.882 560.361C420.846 548.392 438.687 546.777 450.644 556.846C462.6 567.01 464.214 584.869 454.155 596.838Z" fill="#FFC3E3"/>
<path d="M561.099 593.988C551.04 606.052 533.104 607.572 521.147 597.503C509.191 587.434 507.672 569.575 517.636 557.606C527.79 545.637 545.536 544.117 557.492 554.092C569.544 564.161 571.158 582.019 561.099 593.988Z" fill="#FFC3E3"/>
<path d="M599.628 495.482C589.569 507.451 571.729 509.065 559.772 498.901C547.815 488.832 546.296 471.069 556.355 459.005C566.319 447.036 584.16 445.516 596.117 455.49C608.074 465.749 609.687 483.608 599.628 495.482Z" fill="#FFC3E3"/>
</g>
<defs>
<filter id="filter0_d_118_18" x="0.199999" y="0" width="997.079" height="1011.39" filterUnits="userSpaceOnUse" color-interpolation-filters="sRGB">
<feFlood flood-opacity="0" result="BackgroundImageFix"/>
<feColorMatrix in="SourceAlpha" type="matrix" values="0 0 0 0 0 0 0 0 0 0 0 0 0 0 0 0 0 0 127 0" result="hardAlpha"/>
<feOffset dy="19.8"/>
<feGaussianBlur stdDeviation="9.9"/>
<feComposite in2="hardAlpha" operator="out"/>
<feColorMatrix type="matrix" values="0 0 0 0 0 0 0 0 0 0 0 0 0 0 0 0 0 0 0.25 0"/>
<feBlend mode="normal" in2="BackgroundImageFix" result="effect1_dropShadow_118_18"/>
<feBlend mode="normal" in="SourceGraphic" in2="effect1_dropShadow_118_18" result="shape"/>
</filter>
</defs>
</svg>
