<svg width="905" height="1000" viewBox="0 0 905 1000" fill="none" xmlns="http://www.w3.org/2000/svg">
<g id="Leaf 9 - Dark Green">
<path id="Vector" d="M36.167 315.514C36.167 315.514 116.902 358.88 261.757 502.621C406.613 646.362 620.738 743.636 755.839 643.627C755.839 643.627 782.76 200.918 36.167 315.514Z" fill="#97E6AC"/>
<path id="Vector_2" d="M222.01 357.581C339.385 409.793 455.089 466.631 567.359 528.457C676.702 593.159 794.755 653.237 878.704 751.528C800.535 648.25 680.724 586.189 569.926 523.821C456.734 462.754 340.471 407.533 221.596 358.376L222.01 357.581Z" fill="#79D091"/>
<path id="Vector_3" d="M648.395 567.317C637.021 532.778 623.464 499 607.806 466.185C601.922 453.951 595.565 441.827 589.034 430.89C585.663 425.397 582.452 420.165 579.402 415.194C576.352 410.224 573.462 405.515 569.896 401.761C567.108 398.023 564.082 394.467 560.838 391.115C558.584 388.348 556.101 385.776 553.414 383.427C549.002 379.472 546.399 377.288 546.399 377.288C546.399 377.288 548.871 379.553 553.232 383.719C555.872 386.104 558.311 388.702 560.525 391.487C562.692 395.019 566.199 398.089 569.059 402.455C571.919 406.822 575.303 410.867 577.567 416.32C579.831 421.773 583.828 426.523 587.199 432.016C593.781 442.742 599.271 455.218 604.762 467.693C610.252 480.169 615.531 492.594 620.067 504.395C624.603 516.196 628.606 527.424 631.857 537.132C638.41 556.338 642.087 569.386 642.087 569.386L648.395 567.317Z" fill="#79D091"/>
<path id="Vector_4" d="M595.81 442.219L596.5 439.815C597.049 437.516 597.424 435.179 597.623 432.824C597.886 429.59 597.883 426.34 597.614 423.107C597.587 421.32 597.456 419.536 597.222 417.765C596.34 416.326 596.556 414.033 596.197 412.272C595.954 410.44 595.568 408.631 595.041 406.86L593.492 401.689C592.897 400.109 592.389 398.496 591.971 396.86L589.644 393.067C587.49 388.087 585.957 384.706 585.957 384.706C585.957 384.706 587.148 388.117 589.12 393.388C589.762 394.435 590.564 395.743 590.581 397.533C590.597 399.324 591.4 400.632 591.758 402.392L592.885 407.463C593.326 409.247 593.598 411.069 593.699 412.905L594.432 418.217L594.401 423.458C594.321 426.5 594.076 429.535 593.667 432.551C593.137 435.216 592.71 437.46 592.274 438.807L591.423 440.95L595.81 442.219Z" fill="#79D091"/>
<path id="Vector_5" d="M539.192 509.012C530.818 483.493 520.81 458.541 509.228 434.31C504.929 425.245 500.236 416.422 495.39 408.232C492.902 404.177 490.574 400.384 488.247 396.59C485.919 392.797 483.912 389.527 481.119 386.739C478.326 383.952 476.51 381.286 474.511 378.911C472.834 376.895 471.011 375.004 469.056 373.255L463.901 368.677L468.794 373.416C470.823 375.15 472.637 377.12 474.198 379.283C476.476 381.814 478.595 384.482 480.544 387.273C482.471 390.412 484.638 393.943 486.885 397.606C489.133 401.268 491.46 405.061 493.949 409.116C498.845 417.095 502.882 426.321 506.971 435.336C511.059 444.35 514.835 453.737 518.289 462.601C521.744 471.464 524.586 479.623 526.916 486.655C532.19 501.424 534.487 510.459 534.487 510.459L539.192 509.012Z" fill="#79D091"/>
<path id="Vector_6" d="M648.409 565.868C615.065 580.93 580.771 593.794 545.75 604.377C532.633 608.285 519.406 611.72 506.855 614.2C500.7 615.636 494.567 616.519 488.725 617.583C482.883 618.647 477.455 618.917 472.007 619.74C467.364 620.162 462.701 620.318 458.041 620.207C454.488 620.422 450.923 620.32 447.389 619.901L437.997 619.002L447.36 619.559C451.353 619.775 455.359 619.608 459.322 619.061C463.955 619.033 468.583 618.719 473.178 618.12C478.153 617.408 483.632 616.927 489.655 615.571C495.679 614.216 501.47 613.363 507.676 611.716C519.986 608.843 533.052 605.146 545.929 600.846C558.805 596.545 571.653 591.903 583.473 587.35C595.292 582.798 606.347 578.175 615.589 574.124C634.334 565.863 646.378 559.912 646.378 559.912L648.409 565.868Z" fill="#79D091"/>
<path id="Vector_7" d="M543.538 514.627C519.056 525.699 493.871 535.139 468.146 542.885C458.712 545.818 449.136 548.269 439.455 550.228C434.932 551.383 430.219 551.934 426.008 552.717C421.798 553.5 417.74 553.65 413.923 554.191C410.515 554.497 407.093 554.614 403.673 554.54C401.014 554.731 398.342 554.619 395.71 554.205L388.824 553.568L395.76 553.993C398.353 554.265 400.965 554.289 403.563 554.067C406.981 554.048 410.394 553.817 413.784 553.377C417.601 552.835 421.579 552.555 425.84 551.56C430.101 550.566 434.603 549.964 439.126 548.809C448.252 546.63 457.954 543.917 467.335 540.682C476.715 537.446 486.438 534.181 495.185 530.794L518.897 520.925C533.127 514.713 541.603 510.592 541.603 510.592L543.538 514.627Z" fill="#79D091"/>
<path id="Vector_8" d="M449.003 548.15L447.912 549.899C446.976 551.306 445.911 552.622 444.732 553.831C443.098 555.598 441.323 557.229 439.425 558.708L436.018 560.799L432.479 562.971C431.383 563.823 430.196 564.551 428.94 565.142L425.664 567.153L422.518 569.083L419.365 570.118L412.926 572.268L419.124 569.726L422.007 567.956L428.429 564.015C429.603 563.382 430.74 562.684 431.837 561.924L435.244 559.833L438.521 557.823C440.17 556.325 441.714 554.715 443.143 553.006C444.123 551.761 445.001 550.439 445.769 549.054L446.678 547.595L449.003 548.15Z" fill="#79D091"/>
</g>
</svg>
