<svg width="984" height="1024" viewBox="0 0 984 1024" fill="none" xmlns="http://www.w3.org/2000/svg">
<g id="Leaf 9 - Dark Green">
<path id="Vector" d="M930.495 684.137C930.495 684.137 844.79 651.68 682.412 528.076C520.034 404.472 295.044 335.98 174.153 452.768C174.153 452.768 205.247 895.203 930.495 684.137Z" fill="#97E6AC"/>
<path id="Vector_2" d="M740.75 666.688C617.565 630.243 495.432 588.994 376.053 542.35C259.2 492.474 134.315 448.319 38.2546 361.827C129.236 454.018 256.122 499.909 374.113 547.282C494.308 593.052 616.783 632.625 741.058 665.846L740.75 666.688Z" fill="#79D091"/>
<path id="Vector_3" d="M290.638 514.401C306.422 547.159 324.272 578.878 344.08 609.369C351.51 620.73 359.396 631.921 367.298 641.912C371.358 646.918 375.224 651.686 378.896 656.216C382.569 660.746 386.049 665.037 390.074 668.293C393.327 671.636 396.791 674.767 400.445 677.666C403.04 680.115 405.838 682.341 408.809 684.319C413.699 687.665 416.565 689.49 416.565 689.49C416.565 689.49 413.818 687.568 408.951 684.006C406.022 681.986 403.265 679.729 400.707 677.256C398.097 674.038 394.219 671.452 390.814 667.496C387.408 663.54 383.525 659.971 380.569 654.86C377.613 649.749 373.03 645.562 368.97 640.556C361.045 630.781 353.973 619.129 346.901 607.477C339.829 595.824 332.973 584.195 326.936 573.086C320.899 561.978 315.465 551.369 310.974 542.168C301.97 523.982 296.621 511.525 296.621 511.525L290.638 514.401Z" fill="#79D091"/>
<path id="Vector_4" d="M359.101 631.565L358.731 634.038C358.487 636.389 358.42 638.755 358.53 641.116C358.692 644.357 359.119 647.578 359.808 650.748C360.067 652.517 360.43 654.268 360.893 655.993C361.956 657.305 362.041 659.607 362.626 661.305C363.107 663.09 363.726 664.833 364.479 666.52L366.69 671.445C367.486 672.934 368.2 674.466 368.828 676.034L371.631 679.491C374.416 684.148 376.377 687.299 376.377 687.299C376.377 687.299 374.752 684.073 372.108 679.104C371.335 678.15 370.369 676.958 370.119 675.185C369.869 673.412 368.902 672.22 368.317 670.521L366.538 665.641C365.868 663.93 365.36 662.159 365.021 660.352L363.6 655.181L362.947 649.981C362.63 646.955 362.477 643.913 362.488 640.87C362.665 638.158 362.797 635.878 363.053 634.485L363.616 632.25L359.101 631.565Z" fill="#79D091"/>
<path id="Vector_5" d="M406.517 557.953C418.15 582.161 431.33 605.593 445.975 628.104C451.421 636.53 457.225 644.666 463.098 652.154C466.095 655.849 468.897 659.306 471.7 662.763C474.503 666.22 476.919 669.2 480.052 671.599C483.185 673.998 485.334 676.405 487.626 678.498C489.552 680.278 491.606 681.914 493.772 683.393L499.481 687.26L494.011 683.199C491.774 681.745 489.718 680.029 487.887 678.088C485.299 675.877 482.85 673.508 480.553 670.995C478.233 668.135 475.624 664.916 472.918 661.578C470.211 658.241 467.408 654.784 464.412 651.088C458.517 643.817 453.309 635.197 448.079 626.793C442.849 618.389 437.881 609.575 433.299 601.239C428.717 592.902 424.834 585.184 421.606 578.516C414.449 564.561 410.993 555.904 410.993 555.904L406.517 557.953Z" fill="#79D091"/>
<path id="Vector_6" d="M290.813 515.839C321.906 496.553 354.227 479.323 387.567 464.26C400.062 458.673 412.728 453.541 424.847 449.444C430.762 447.217 436.728 445.541 442.381 443.723C448.034 441.906 453.38 440.93 458.674 439.403C463.223 438.378 467.825 437.615 472.46 437.116C475.954 436.439 479.502 436.076 483.06 436.029L492.489 435.695L483.134 436.365C479.147 436.672 475.197 437.361 471.339 438.42C466.749 439.052 462.202 439.967 457.724 441.161C452.885 442.517 447.516 443.709 441.721 445.839C435.926 447.969 430.295 449.571 424.358 452.014C412.528 456.468 400.056 461.839 387.851 467.784C375.646 473.728 363.514 480.008 352.39 486.064C341.265 492.121 330.908 498.147 322.275 503.369C304.768 514.007 293.604 521.479 293.604 521.479L290.813 515.839Z" fill="#79D091"/>
<path id="Vector_7" d="M401.475 552.953C424.302 538.78 448.04 526.134 472.534 515.096C481.504 510.956 490.678 507.277 500.021 504.071C504.354 502.336 508.955 501.174 513.027 499.848C517.099 498.522 521.103 497.844 524.817 496.809C528.156 496.061 531.533 495.499 534.934 495.126C537.545 494.589 540.209 494.352 542.873 494.418L549.782 494.15L542.85 494.634C540.244 494.704 537.651 495.021 535.104 495.58C531.719 496.045 528.364 496.719 525.061 497.599C521.347 498.634 517.44 499.431 513.346 500.973C509.251 502.515 504.866 503.699 500.532 505.435C491.768 508.787 482.504 512.742 473.626 517.175C464.748 521.607 455.534 526.114 447.304 530.613L425.083 543.493C411.786 551.508 403.92 556.701 403.92 556.701L401.475 552.953Z" fill="#79D091"/>
<path id="Vector_8" d="M490.826 507.378L491.679 505.5C492.423 503.984 493.307 502.54 494.319 501.187C495.708 499.222 497.254 497.374 498.943 495.659L502.049 493.141L505.274 490.527C506.249 489.539 507.331 488.662 508.499 487.912L511.485 485.491L514.351 483.167L517.343 481.729L523.446 478.756L517.633 482.086L515.005 484.217L509.153 488.962C508.072 489.744 507.035 490.584 506.047 491.48L502.942 493.998L499.955 496.419C498.516 498.12 497.195 499.917 496.002 501.798C495.193 503.16 494.495 504.585 493.914 506.059L493.203 507.624L490.826 507.378Z" fill="#79D091"/>
</g>
</svg>
