<svg width="1051" height="934" viewBox="0 0 1051 934" fill="none" xmlns="http://www.w3.org/2000/svg">
<g id="Leaf 9 - Dark Green">
<path id="Vector" d="M128.665 703.485C128.665 703.485 209.388 660.096 409.202 618.64C609.017 577.183 808.315 452.316 799.487 284.458C799.487 284.458 445.177 17.662 128.665 703.485Z" fill="#97E6AC"/>
<path id="Vector_2" d="M266.318 571.731C374.64 502.671 485.897 437.559 599.419 378.063C713.724 322.594 828.98 257.311 957.278 241.557C828.011 249.739 710.132 315.393 596.97 373.363C483.572 434.047 373.355 500.519 266.751 572.515L266.318 571.731Z" fill="#79D091"/>
<path id="Vector_3" d="M676.55 331.936C641.472 322.357 605.822 315.019 569.816 309.965C556.366 308.118 542.748 306.728 530.023 306.138C523.581 305.917 517.446 305.706 511.618 305.506C505.79 305.306 500.268 305.117 495.17 306.019C490.513 306.28 485.878 306.841 481.293 307.697C477.741 308.048 474.226 308.7 470.784 309.644C465.051 311.14 461.793 312.105 461.793 312.105C461.793 312.105 465.046 311.294 470.927 309.957C474.373 309.071 477.886 308.472 481.43 308.163C485.571 308.305 490.067 307.075 495.287 307.1C500.507 307.125 505.748 306.536 511.544 307.658C517.341 308.78 523.507 308.068 529.949 308.289C542.526 308.721 555.959 311.028 569.393 313.335C582.827 315.642 596.102 318.098 608.446 320.829C620.79 323.561 632.362 326.42 642.252 329.067C661.885 334.202 674.795 338.338 674.795 338.338L676.55 331.936Z" fill="#79D091"/>
<path id="Vector_4" d="M543.21 306.739L541.586 304.837C539.972 303.11 538.23 301.508 536.376 300.042C533.824 298.038 531.112 296.247 528.268 294.687C526.763 293.723 525.204 292.847 523.598 292.065C521.911 292.007 520.117 290.561 518.451 289.888C516.79 289.08 515.067 288.403 513.3 287.865L508.133 286.303C506.486 285.927 504.862 285.46 503.267 284.905L498.819 284.753C493.477 283.8 489.812 283.213 489.812 283.213C489.812 283.213 493.313 284.102 498.798 285.367C500.025 285.409 501.559 285.462 503.061 286.437C504.563 287.411 506.097 287.464 507.763 288.137L512.613 289.996C514.344 290.613 516.014 291.391 517.6 292.321L522.434 294.641L526.787 297.559C529.28 299.305 531.675 301.185 533.965 303.191C535.895 305.103 537.53 306.698 538.413 307.805L539.73 309.697L543.21 306.739Z" fill="#79D091"/>
<path id="Vector_5" d="M567.658 390.818C541.756 383.716 515.425 378.29 488.827 374.574C478.895 373.156 468.947 372.199 459.443 371.719C454.688 371.556 450.24 371.404 445.793 371.251C441.345 371.098 437.51 370.967 433.644 371.757C429.778 372.548 426.552 372.591 423.469 372.947C420.862 373.232 418.279 373.71 415.742 374.374L409.079 376.146L415.731 374.682C418.297 373.947 420.941 373.521 423.606 373.413C426.974 372.911 430.368 372.616 433.771 372.531C437.452 372.657 441.593 372.799 445.888 372.947C450.182 373.094 454.63 373.247 459.385 373.41C468.741 373.731 478.662 375.456 488.436 377.022C498.21 378.588 508.121 380.621 517.419 382.632C526.717 384.644 535.089 386.777 542.24 388.715C557.466 392.469 566.267 395.54 566.267 395.54L567.658 390.818Z" fill="#79D091"/>
<path id="Vector_6" d="M675.35 331.124C669.506 367.243 661.305 402.94 650.801 437.985C646.82 451.08 642.384 464.006 637.525 475.84C635.325 481.766 632.676 487.368 630.339 492.826C628.002 498.285 625.231 502.96 622.91 507.958C620.699 512.062 618.256 516.037 615.592 519.862C613.81 522.943 611.757 525.859 609.458 528.575L603.524 535.911L609.156 528.411C611.54 525.2 613.612 521.767 615.343 518.161C617.877 514.282 620.169 510.25 622.206 506.087C624.358 501.545 626.981 496.712 629.175 490.94C631.369 485.169 633.855 479.869 635.906 473.785C640.305 461.935 644.434 448.998 647.955 435.887C651.476 422.776 654.696 409.5 657.423 397.131C660.151 384.762 662.397 372.992 664.12 363.05C667.577 342.859 669.263 329.531 669.263 329.531L675.35 331.124Z" fill="#79D091"/>
<path id="Vector_7" d="M574.739 390.293C570.459 416.819 564.43 443.031 556.691 468.758C553.93 478.244 550.689 487.582 546.978 496.736C545.445 501.145 543.304 505.38 541.633 509.323C539.962 513.266 537.847 516.732 536.192 520.214C534.566 523.225 532.774 526.143 530.825 528.954C529.517 531.277 527.948 533.443 526.15 535.41L521.819 540.8L526.002 535.251C527.659 533.238 529.122 531.073 530.37 528.784C532.24 525.924 533.932 522.95 535.436 519.88C537.091 516.398 539.052 512.927 540.575 508.825C542.098 504.723 544.081 500.637 545.614 496.227C548.834 487.414 551.927 477.827 554.406 468.219C556.886 458.61 559.529 448.7 561.532 439.537L566.39 414.317C569.065 399.022 570.306 389.68 570.306 389.68L574.739 390.293Z" fill="#79D091"/>
<path id="Vector_8" d="M550.515 487.627L551.372 489.503C552.029 491.059 552.539 492.673 552.896 494.325C553.468 496.662 553.848 499.042 554.034 501.441L553.897 505.437L553.754 509.586C553.86 510.971 553.813 512.362 553.612 513.736L553.48 517.578L553.354 521.266L552.476 524.467L550.716 531.023L552.016 524.451L552.132 521.07L552.39 513.54C552.51 512.212 552.555 510.878 552.527 509.544L552.664 505.549L552.796 501.707C552.457 499.505 551.968 497.329 551.331 495.194C550.833 493.69 550.216 492.228 549.484 490.823L548.77 489.26L550.515 487.627Z" fill="#79D091"/>
</g>
</svg>
