<svg width="57" height="57" viewBox="0 0 57 57" fill="none" xmlns="http://www.w3.org/2000/svg">
<path fill-rule="evenodd" clip-rule="evenodd" d="M43.2283 13.4262C42.3331 13.5854 41.0639 14.0019 39.0318 14.6793L23.6968 19.791C21.7421 20.4425 20.363 20.903 19.3709 21.2901C18.8803 21.4815 18.5386 21.6344 18.301 21.7598C18.0998 21.8659 18.0274 21.9244 18.0231 21.9274C17.0643 22.8557 17.0643 24.3938 18.0231 25.322C18.0274 25.325 18.0998 25.3835 18.301 25.4896C18.5386 25.615 18.8803 25.7679 19.3709 25.9593C20.363 26.3464 21.7421 26.8069 23.6968 27.4584C23.7417 27.4734 23.7862 27.4882 23.8303 27.5029C24.4762 27.7177 25.0432 27.9063 25.5652 28.1824C26.8232 28.8477 27.8518 29.8762 28.5171 31.1342C28.7931 31.6562 28.9817 32.2233 29.1965 32.8691C29.2112 32.9132 29.226 32.9577 29.241 33.0026C29.8926 34.9573 30.353 36.3365 30.7401 37.3285C30.9315 37.8191 31.0844 38.1608 31.2098 38.3984C31.3159 38.5996 31.3744 38.6719 31.3774 38.6763C32.3057 39.6352 33.8438 39.6352 34.772 38.6763C34.775 38.6719 34.8335 38.5996 34.9396 38.3984C35.065 38.1608 35.2179 37.8191 35.4093 37.3285C35.7964 36.3365 36.2569 34.9573 36.9085 33.0026L42.0201 17.6677C42.6975 15.6355 43.114 14.3663 43.2733 13.4712C43.2766 13.4525 43.2797 13.4344 43.2827 13.4167C43.265 13.4197 43.2469 13.4229 43.2283 13.4262ZM43.8401 13.3716C43.8396 13.372 43.8318 13.3714 43.8182 13.3684C43.8338 13.3696 43.8406 13.3711 43.8401 13.3716ZM43.3311 12.8812C43.3281 12.8676 43.3274 12.8598 43.3279 12.8593C43.3283 12.8589 43.3298 12.8656 43.3311 12.8812ZM42.4007 8.7742C43.7024 8.54264 45.485 8.47368 46.8554 9.84407C48.2257 11.2145 48.1568 12.997 47.9252 14.2987C47.6977 15.5778 47.1627 17.1822 46.5591 18.9926L46.5026 19.1619L41.391 34.4968L41.3687 34.5637C40.7444 36.4367 40.2467 37.9296 39.8112 39.046C39.4017 40.0953 38.9163 41.183 38.1851 41.9438C35.3962 44.846 30.7532 44.846 27.9643 41.9438C27.2332 41.183 26.7477 40.0953 26.3383 39.0459C25.9027 37.9295 25.405 36.4365 24.7807 34.5634L24.7585 34.4968C24.474 33.6435 24.4099 33.475 24.3402 33.3432C24.1184 32.9238 23.7756 32.581 23.3563 32.3592C23.2244 32.2895 23.056 32.2254 22.2026 31.941L22.1361 31.9188C20.2629 31.2944 18.7699 30.7968 17.6535 30.3611C16.6041 29.9517 15.5165 29.4662 14.7556 28.7351C11.8534 25.9462 11.8534 21.3032 14.7556 18.5143C15.5165 17.7832 16.6041 17.2977 17.6535 16.8883C18.7699 16.4527 20.2629 15.955 22.136 15.3307L22.2026 15.3084L37.5376 10.1968L37.7068 10.1404C39.5172 9.53673 41.1216 9.00175 42.4007 8.7742Z" fill="black"/>
</svg>
