<svg width="55" height="55" viewBox="0 0 55 55" fill="none" xmlns="http://www.w3.org/2000/svg">
<path d="M40.2379 31.1562L46.2502 37.1685C47.0586 37.977 47.0586 39.2878 46.2502 40.0963C41.8791 44.4673 34.9592 44.9591 30.014 41.2502L26.4371 38.5676C22.4786 35.5987 18.9622 32.0822 15.9933 28.1237L13.3107 24.5469C9.60175 19.6016 10.0935 12.6817 14.4645 8.31069C15.273 7.50221 16.5838 7.50221 17.3923 8.31069L23.4046 14.323C24.2913 15.2096 24.2913 16.6472 23.4046 17.5338L21.0862 19.8522C20.7178 20.2207 20.6264 20.7836 20.8594 21.2496C23.5536 26.638 27.9228 31.0072 33.3112 33.7014C33.7773 33.9344 34.3402 33.8431 34.7086 33.4747L37.027 31.1562C37.9137 30.2696 39.3512 30.2696 40.2379 31.1562Z" stroke="black" stroke-width="4.5408"/>
</svg>
